FILE "Seima Densetsu 3x3 Eyes (1993)(Sega)(JP-KR)(ja).img" BINARY
  TRACK 01 MODE1/2352
    INDEX 01 00:00:00
  TRACK 02 AUDIO
    PREGAP 00:02:00
    INDEX 01 29:21:15
  TRACK 03 AUDIO
    INDEX 00 29:44:06
    INDEX 01 29:46:05
  TRACK 04 AUDIO
    INDEX 00 30:13:21
    INDEX 01 30:15:20
  TRACK 05 AUDIO
    INDEX 00 30:34:03
    INDEX 01 30:36:02
  TRACK 06 AUDIO
    INDEX 00 30:45:54
    INDEX 01 30:47:53
  TRACK 07 AUDIO
    INDEX 00 30:56:24
    INDEX 01 30:58:23
  TRACK 08 AUDIO
    INDEX 00 31:04:00
    INDEX 01 31:05:74
  TRACK 09 AUDIO
    INDEX 00 31:20:52
    INDEX 01 31:22:51
  TRACK 10 AUDIO
    INDEX 00 31:57:71
    INDEX 01 31:59:70
  TRACK 11 AUDIO
    INDEX 00 32:25:11
    INDEX 01 32:27:10
  TRACK 12 AUDIO
    INDEX 00 32:42:03
    INDEX 01 32:44:02
  TRACK 13 AUDIO
    INDEX 00 33:39:58
    INDEX 01 33:41:57
  TRACK 14 AUDIO
    INDEX 00 33:53:03
    INDEX 01 33:55:02
  TRACK 15 AUDIO
    INDEX 00 34:35:19
    INDEX 01 34:37:18
  TRACK 16 AUDIO
    INDEX 00 35:23:36
    INDEX 01 35:25:35
  TRACK 17 AUDIO
    INDEX 00 35:37:12
    INDEX 01 35:39:11
  TRACK 18 AUDIO
    INDEX 00 36:05:64
    INDEX 01 36:07:63
  TRACK 19 AUDIO
    INDEX 00 38:28:50
    INDEX 01 38:30:49
  TRACK 20 AUDIO
    INDEX 00 38:42:39
    INDEX 01 38:44:38
  TRACK 21 AUDIO
    INDEX 00 39:25:36
    INDEX 01 39:26:57
  TRACK 22 AUDIO
    INDEX 00 41:44:24
    INDEX 01 41:46:23
  TRACK 23 AUDIO
    INDEX 00 43:04:05
    INDEX 01 43:06:04
  TRACK 24 AUDIO
    INDEX 00 43:46:08
    INDEX 01 43:48:07
  TRACK 25 AUDIO
    INDEX 00 44:57:62
    INDEX 01 44:59:61
  TRACK 26 AUDIO
    INDEX 00 46:20:06
    INDEX 01 46:22:05
  TRACK 27 AUDIO
    INDEX 00 46:31:57
    INDEX 01 46:33:56
  TRACK 28 AUDIO
    INDEX 00 47:03:72
    INDEX 01 47:05:71
  TRACK 29 AUDIO
    INDEX 00 47:33:50
    INDEX 01 47:35:49
  TRACK 30 AUDIO
    INDEX 00 48:10:28
    INDEX 01 48:12:27
  TRACK 31 AUDIO
    INDEX 00 48:22:70
    INDEX 01 48:24:69
  TRACK 32 AUDIO
    INDEX 00 50:19:69
    INDEX 01 50:21:68
  TRACK 33 AUDIO
    INDEX 00 50:50:36
    INDEX 01 50:52:35
  TRACK 34 AUDIO
    INDEX 00 51:23:26
    INDEX 01 51:25:25
  TRACK 35 AUDIO
    INDEX 00 51:52:66
    INDEX 01 51:54:65
  TRACK 36 AUDIO
    INDEX 00 52:05:17
    INDEX 01 52:07:16
  TRACK 37 AUDIO
    INDEX 00 53:14:09
    INDEX 01 53:16:08
  TRACK 38 AUDIO
    INDEX 00 53:39:26
    INDEX 01 53:41:25
  TRACK 39 AUDIO
    INDEX 00 54:58:16
    INDEX 01 55:00:15
  TRACK 40 AUDIO
    INDEX 00 55:45:20
    INDEX 01 55:47:19
  TRACK 41 AUDIO
    INDEX 00 56:30:73
    INDEX 01 56:32:72
  TRACK 42 AUDIO
    INDEX 00 57:43:07
    INDEX 01 57:45:06
  TRACK 43 AUDIO
    INDEX 00 57:52:66
    INDEX 01 57:54:65
  TRACK 44 AUDIO
    INDEX 00 58:05:50
    INDEX 01 58:07:49
  TRACK 45 AUDIO
    INDEX 00 58:17:73
    INDEX 01 58:19:72
  TRACK 46 AUDIO
    INDEX 00 58:25:56
    INDEX 01 58:27:55
  TRACK 47 AUDIO
    INDEX 00 58:34:17
    INDEX 01 58:36:16
